<mxfile host="app.diagrams.net" modified="2021-08-25T12:34:07.355Z" agent="5.0 (Macintosh; Intel Mac OS X 10_16_0) AppleWebKit/537.36 (KHTML, like Gecko) Chrome/81.0.4044.138 Safari/537.36" etag="cj3tEdakmeTE3I-YWG2X" version="14.9.3" type="github">
  <diagram id="EecFl8-iLUVndyqrboEX" name="Page-1">
    <mxGraphModel dx="2092" dy="841" grid="1" gridSize="10" guides="1" tooltips="1" connect="1" arrows="1" fold="1" page="1" pageScale="1" pageWidth="827" pageHeight="1169" math="0" shadow="0">
      <root>
        <mxCell id="0" />
        <mxCell id="1" parent="0" />
        <mxCell id="zIK37jYaN7AjfvIw7IpD-9" value="" style="rounded=1;whiteSpace=wrap;html=1;fillColor=#d5e8d4;strokeColor=#82b366;" vertex="1" parent="1">
          <mxGeometry x="350" y="210" width="170" height="310" as="geometry" />
        </mxCell>
        <mxCell id="zIK37jYaN7AjfvIw7IpD-8" value="" style="rounded=1;whiteSpace=wrap;html=1;fillColor=#D4E1F5;" vertex="1" parent="1">
          <mxGeometry x="-20" y="210" width="360" height="310" as="geometry" />
        </mxCell>
        <mxCell id="zIK37jYaN7AjfvIw7IpD-39" value="" style="edgeStyle=orthogonalEdgeStyle;rounded=0;orthogonalLoop=1;jettySize=auto;html=1;" edge="1" parent="1" source="zIK37jYaN7AjfvIw7IpD-1" target="zIK37jYaN7AjfvIw7IpD-38">
          <mxGeometry relative="1" as="geometry" />
        </mxCell>
        <mxCell id="zIK37jYaN7AjfvIw7IpD-1" value="云流管控服务Admin" style="image;html=1;image=img/lib/clip_art/computers/Server_Tower_128x128.png" vertex="1" parent="1">
          <mxGeometry x="170" y="230" width="80" height="80" as="geometry" />
        </mxCell>
        <mxCell id="zIK37jYaN7AjfvIw7IpD-2" value="云流轻空间服务Light" style="image;html=1;image=img/lib/clip_art/computers/Server_Tower_128x128.png" vertex="1" parent="1">
          <mxGeometry x="170" y="390" width="80" height="80" as="geometry" />
        </mxCell>
        <mxCell id="zIK37jYaN7AjfvIw7IpD-4" value="DB" style="image;html=1;image=img/lib/clip_art/computers/Database_128x128.png" vertex="1" parent="1">
          <mxGeometry x="20" y="330" width="80" height="80" as="geometry" />
        </mxCell>
        <mxCell id="zIK37jYaN7AjfvIw7IpD-5" value="IDAAS in ECS" style="image;html=1;image=img/lib/clip_art/computers/Mainframe_128x128.png" vertex="1" parent="1">
          <mxGeometry x="410" y="320" width="80" height="80" as="geometry" />
        </mxCell>
        <mxCell id="zIK37jYaN7AjfvIw7IpD-7" value="" style="shape=curlyBracket;whiteSpace=wrap;html=1;rounded=1;" vertex="1" parent="1">
          <mxGeometry x="-70" y="205" width="20" height="305" as="geometry" />
        </mxCell>
        <mxCell id="zIK37jYaN7AjfvIw7IpD-10" value="&lt;font style=&quot;font-size: 20px ; background-color: rgb(255 , 255 , 255)&quot;&gt;专有云（南网）&lt;/font&gt;" style="text;html=1;strokeColor=none;fillColor=none;align=center;verticalAlign=middle;whiteSpace=wrap;rounded=0;" vertex="1" parent="1">
          <mxGeometry x="-220" y="337.5" width="170" height="40" as="geometry" />
        </mxCell>
        <mxCell id="zIK37jYaN7AjfvIw7IpD-12" value="&lt;font style=&quot;font-size: 20px ; background-color: rgb(255 , 255 , 255)&quot;&gt;管控侧&lt;/font&gt;" style="text;html=1;strokeColor=none;fillColor=none;align=center;verticalAlign=middle;whiteSpace=wrap;rounded=0;" vertex="1" parent="1">
          <mxGeometry x="-20" y="250" width="170" height="40" as="geometry" />
        </mxCell>
        <mxCell id="zIK37jYaN7AjfvIw7IpD-13" value="&lt;span style=&quot;font-size: 20px ; background-color: rgb(255 , 255 , 255)&quot;&gt;租户侧&lt;/span&gt;" style="text;html=1;strokeColor=none;fillColor=none;align=center;verticalAlign=middle;whiteSpace=wrap;rounded=0;" vertex="1" parent="1">
          <mxGeometry x="350" y="240" width="170" height="40" as="geometry" />
        </mxCell>
        <mxCell id="zIK37jYaN7AjfvIw7IpD-17" value="" style="edgeStyle=elbowEdgeStyle;elbow=horizontal;endArrow=classic;html=1;exitX=-0.012;exitY=0.675;exitDx=0;exitDy=0;exitPerimeter=0;entryX=1;entryY=0.5;entryDx=0;entryDy=0;" edge="1" parent="1" source="zIK37jYaN7AjfvIw7IpD-1" target="zIK37jYaN7AjfvIw7IpD-4">
          <mxGeometry width="50" height="50" relative="1" as="geometry">
            <mxPoint x="110" y="310" as="sourcePoint" />
            <mxPoint x="160" y="260" as="targetPoint" />
          </mxGeometry>
        </mxCell>
        <mxCell id="zIK37jYaN7AjfvIw7IpD-20" value="" style="endArrow=classic;html=1;entryX=0;entryY=0.5;entryDx=0;entryDy=0;" edge="1" parent="1" target="zIK37jYaN7AjfvIw7IpD-2">
          <mxGeometry width="50" height="50" relative="1" as="geometry">
            <mxPoint x="110" y="400" as="sourcePoint" />
            <mxPoint x="110" y="430" as="targetPoint" />
          </mxGeometry>
        </mxCell>
        <mxCell id="zIK37jYaN7AjfvIw7IpD-21" value="" style="endArrow=classic;html=1;" edge="1" parent="1">
          <mxGeometry width="50" height="50" relative="1" as="geometry">
            <mxPoint x="270" y="440" as="sourcePoint" />
            <mxPoint x="400" y="390" as="targetPoint" />
          </mxGeometry>
        </mxCell>
        <mxCell id="zIK37jYaN7AjfvIw7IpD-24" value="" style="endArrow=classic;html=1;" edge="1" parent="1">
          <mxGeometry width="50" height="50" relative="1" as="geometry">
            <mxPoint x="400" y="330" as="sourcePoint" />
            <mxPoint x="270" y="280" as="targetPoint" />
          </mxGeometry>
        </mxCell>
        <mxCell id="zIK37jYaN7AjfvIw7IpD-25" value="&lt;font style=&quot;background-color: rgb(255 , 255 , 255) ; font-size: 14px&quot;&gt;数据推送&lt;/font&gt;" style="text;html=1;strokeColor=none;fillColor=none;align=center;verticalAlign=middle;whiteSpace=wrap;rounded=0;" vertex="1" parent="1">
          <mxGeometry x="270" y="270" width="170" height="40" as="geometry" />
        </mxCell>
        <mxCell id="zIK37jYaN7AjfvIw7IpD-26" value="&lt;span style=&quot;font-size: 14px ; background-color: rgb(255 , 255 , 255)&quot;&gt;登录请求&lt;/span&gt;" style="text;html=1;strokeColor=none;fillColor=none;align=center;verticalAlign=middle;whiteSpace=wrap;rounded=0;" vertex="1" parent="1">
          <mxGeometry x="250" y="380" width="170" height="40" as="geometry" />
        </mxCell>
        <mxCell id="zIK37jYaN7AjfvIw7IpD-28" value="无影终端" style="image;html=1;image=img/lib/clip_art/computers/Harddrive_128x128.png;fillColor=#D4E1F5;" vertex="1" parent="1">
          <mxGeometry x="50" y="573" width="80" height="80" as="geometry" />
        </mxCell>
        <mxCell id="zIK37jYaN7AjfvIw7IpD-29" value="无影网页" style="image;html=1;image=img/lib/clip_art/computers/Laptop_128x128.png;fillColor=#D4E1F5;" vertex="1" parent="1">
          <mxGeometry x="170" y="580" width="80" height="80" as="geometry" />
        </mxCell>
        <mxCell id="zIK37jYaN7AjfvIw7IpD-32" value="" style="whiteSpace=wrap;html=1;shape=mxgraph.basic.cloud_callout;fillColor=#D4E1F5;" vertex="1" parent="1">
          <mxGeometry x="180" y="510" width="90" height="60" as="geometry" />
        </mxCell>
        <mxCell id="zIK37jYaN7AjfvIw7IpD-34" value="" style="edgeStyle=orthogonalEdgeStyle;rounded=0;orthogonalLoop=1;jettySize=auto;html=1;" edge="1" parent="1" source="zIK37jYaN7AjfvIw7IpD-33">
          <mxGeometry relative="1" as="geometry">
            <mxPoint x="20" y="610" as="targetPoint" />
          </mxGeometry>
        </mxCell>
        <mxCell id="zIK37jYaN7AjfvIw7IpD-33" value="客户" style="image;html=1;image=img/lib/clip_art/people/Waiter_128x128.png;fillColor=#D4E1F5;" vertex="1" parent="1">
          <mxGeometry x="-120" y="570" width="80" height="80" as="geometry" />
        </mxCell>
        <mxCell id="zIK37jYaN7AjfvIw7IpD-37" value="登录" style="text;html=1;strokeColor=none;fillColor=none;align=center;verticalAlign=middle;whiteSpace=wrap;rounded=0;" vertex="1" parent="1">
          <mxGeometry x="-30" y="580" width="40" height="20" as="geometry" />
        </mxCell>
        <mxCell id="zIK37jYaN7AjfvIw7IpD-42" value="" style="edgeStyle=orthogonalEdgeStyle;rounded=0;orthogonalLoop=1;jettySize=auto;html=1;" edge="1" parent="1" source="zIK37jYaN7AjfvIw7IpD-38" target="zIK37jYaN7AjfvIw7IpD-1">
          <mxGeometry relative="1" as="geometry" />
        </mxCell>
        <mxCell id="zIK37jYaN7AjfvIw7IpD-38" value="登录管控" style="image;html=1;image=img/lib/clip_art/computers/Laptop_128x128.png;fillColor=#D4E1F5;" vertex="1" parent="1">
          <mxGeometry x="170" y="80" width="80" height="80" as="geometry" />
        </mxCell>
        <mxCell id="zIK37jYaN7AjfvIw7IpD-41" value="" style="edgeStyle=orthogonalEdgeStyle;rounded=0;orthogonalLoop=1;jettySize=auto;html=1;" edge="1" parent="1" source="zIK37jYaN7AjfvIw7IpD-40" target="zIK37jYaN7AjfvIw7IpD-38">
          <mxGeometry relative="1" as="geometry" />
        </mxCell>
        <mxCell id="zIK37jYaN7AjfvIw7IpD-40" value="运营小二" style="image;html=1;image=img/lib/clip_art/people/Military_Officer_Woman_128x128.png;fillColor=#D4E1F5;" vertex="1" parent="1">
          <mxGeometry x="30" y="80" width="80" height="80" as="geometry" />
        </mxCell>
      </root>
    </mxGraphModel>
  </diagram>
</mxfile>
